<mxfile host="65bd71144e">
    <diagram id="3-cXOF-YCAIOPq697iD0" name="Page-1">
        <mxGraphModel dx="880" dy="1519" grid="1" gridSize="10" guides="1" tooltips="1" connect="1" arrows="1" fold="1" page="1" pageScale="1" pageWidth="850" pageHeight="1100" math="0" shadow="0">
            <root>
                <mxCell id="0"/>
                <mxCell id="1" parent="0"/>
                <mxCell id="25" value="&lt;h1 style=&quot;margin: 0px 0px 0px 40px ; border: none ; padding: 0px&quot;&gt;&lt;br&gt;&lt;/h1&gt;" style="rounded=1;whiteSpace=wrap;html=1;align=left;strokeColor=#0066CC;" parent="1" vertex="1">
                    <mxGeometry x="40" y="90" width="710" height="580" as="geometry"/>
                </mxCell>
                <mxCell id="13" value="" style="group" parent="1" vertex="1" connectable="0">
                    <mxGeometry x="580" y="330" width="100" height="68" as="geometry"/>
                </mxCell>
                <mxCell id="14" value="" style="html=1;dashed=0;whitespace=wrap;fillColor=#2875E2;strokeColor=#ffffff;points=[[0.005,0.63,0],[0.1,0.2,0],[0.9,0.2,0],[0.5,0,0],[0.995,0.63,0],[0.72,0.99,0],[0.5,1,0],[0.28,0.99,0]];shape=mxgraph.kubernetes.icon;prIcon=svc" parent="13" vertex="1">
                    <mxGeometry x="20" width="50" height="48" as="geometry"/>
                </mxCell>
                <mxCell id="15" value="mirror-media-nuxt" style="text;html=1;align=center;verticalAlign=middle;resizable=0;points=[];autosize=1;" parent="13" vertex="1">
                    <mxGeometry x="-10" y="48" width="110" height="20" as="geometry"/>
                </mxCell>
                <mxCell id="16" value="" style="group" parent="1" vertex="1" connectable="0">
                    <mxGeometry x="380" y="200" width="90" height="68" as="geometry"/>
                </mxCell>
                <mxCell id="17" value="" style="html=1;dashed=0;whitespace=wrap;fillColor=#2875E2;strokeColor=#ffffff;points=[[0.005,0.63,0],[0.1,0.2,0],[0.9,0.2,0],[0.5,0,0],[0.995,0.63,0],[0.72,0.99,0],[0.5,1,0],[0.28,0.99,0]];shape=mxgraph.kubernetes.icon;prIcon=svc" parent="16" vertex="1">
                    <mxGeometry x="20" width="50" height="48" as="geometry"/>
                </mxCell>
                <mxCell id="18" value="Nginx" style="text;html=1;align=center;verticalAlign=middle;resizable=0;points=[];autosize=1;" parent="16" vertex="1">
                    <mxGeometry x="20" y="48" width="50" height="20" as="geometry"/>
                </mxCell>
                <mxCell id="21" style="edgeStyle=none;rounded=0;orthogonalLoop=1;jettySize=auto;html=1;exitX=0.5;exitY=1;exitDx=0;exitDy=0;entryX=0.5;entryY=0;entryDx=0;entryDy=0;entryPerimeter=0;" parent="1" source="19" target="17" edge="1">
                    <mxGeometry relative="1" as="geometry"/>
                </mxCell>
                <mxCell id="19" value="" style="strokeColor=#dddddd;shadow=1;strokeWidth=1;rounded=1;absoluteArcSize=1;arcSize=2;" parent="1" vertex="1">
                    <mxGeometry x="360" y="60" width="130" height="60" as="geometry"/>
                </mxCell>
                <mxCell id="20" value="Cloud Load&#10;Balancing" style="dashed=0;connectable=0;html=1;fillColor=#5184F3;strokeColor=none;shape=mxgraph.gcp2.hexIcon;prIcon=cloud_load_balancing;part=1;labelPosition=right;verticalLabelPosition=middle;align=left;verticalAlign=middle;spacingLeft=5;fontColor=#999999;fontSize=12;" parent="19" vertex="1">
                    <mxGeometry y="0.5" width="44" height="39" relative="1" as="geometry">
                        <mxPoint x="5" y="-19.5" as="offset"/>
                    </mxGeometry>
                </mxCell>
                <mxCell id="27" value="Mobile client" style="outlineConnect=0;fontColor=#232F3E;gradientColor=none;strokeColor=#232F3E;fillColor=#ffffff;dashed=0;verticalLabelPosition=bottom;verticalAlign=top;align=center;html=1;fontSize=12;fontStyle=0;aspect=fixed;shape=mxgraph.aws4.resourceIcon;resIcon=mxgraph.aws4.mobile_client;" parent="1" vertex="1">
                    <mxGeometry x="180" y="-43" width="60" height="60" as="geometry"/>
                </mxCell>
                <mxCell id="30" style="rounded=0;orthogonalLoop=1;jettySize=auto;html=1;exitX=0;exitY=0.5;exitDx=0;exitDy=0;exitPerimeter=0;" parent="1" source="28" target="29" edge="1">
                    <mxGeometry relative="1" as="geometry"/>
                </mxCell>
                <mxCell id="70" style="edgeStyle=orthogonalEdgeStyle;rounded=0;orthogonalLoop=1;jettySize=auto;html=1;exitX=1;exitY=0.5;exitDx=0;exitDy=0;exitPerimeter=0;entryX=0.5;entryY=0;entryDx=0;entryDy=0;" parent="1" source="28" target="68" edge="1">
                    <mxGeometry relative="1" as="geometry"/>
                </mxCell>
                <mxCell id="28" value="" style="outlineConnect=0;dashed=0;verticalLabelPosition=bottom;verticalAlign=top;align=center;html=1;shape=mxgraph.aws3.management_console;fillColor=#D2D3D3;gradientColor=none;strokeColor=#0066CC;" parent="1" vertex="1">
                    <mxGeometry x="610" y="-43" width="63" height="63" as="geometry"/>
                </mxCell>
                <mxCell id="33" value="" style="edgeStyle=none;rounded=0;orthogonalLoop=1;jettySize=auto;html=1;" parent="1" source="29" target="19" edge="1">
                    <mxGeometry relative="1" as="geometry"/>
                </mxCell>
                <mxCell id="29" value="CDN" style="aspect=fixed;html=1;points=[];align=center;image;fontSize=12;image=img/lib/azure2/app_services/CDN_Profiles.svg;strokeColor=#0066CC;" parent="1" vertex="1">
                    <mxGeometry x="391" y="-30" width="68" height="40" as="geometry"/>
                </mxCell>
                <mxCell id="32" value="" style="endArrow=classic;html=1;entryX=-0.004;entryY=0.431;entryDx=0;entryDy=0;entryPerimeter=0;" parent="1" source="27" target="29" edge="1">
                    <mxGeometry width="50" height="50" relative="1" as="geometry">
                        <mxPoint x="410" y="80" as="sourcePoint"/>
                        <mxPoint x="460" y="30" as="targetPoint"/>
                    </mxGeometry>
                </mxCell>
                <mxCell id="34" style="edgeStyle=none;rounded=0;orthogonalLoop=1;jettySize=auto;html=1;exitX=0.1;exitY=0.2;exitDx=0;exitDy=0;exitPerimeter=0;entryX=0.9;entryY=0.2;entryDx=0;entryDy=0;entryPerimeter=0;" parent="1" source="14" target="2" edge="1">
                    <mxGeometry relative="1" as="geometry">
                        <mxPoint x="450" y="391" as="targetPoint"/>
                    </mxGeometry>
                </mxCell>
                <mxCell id="42" value="www.mirrormedia.mg" style="text;html=1;strokeColor=none;fillColor=none;align=center;verticalAlign=middle;whiteSpace=wrap;rounded=0;" parent="1" vertex="1">
                    <mxGeometry x="510" y="-30" width="40" height="20" as="geometry"/>
                </mxCell>
                <mxCell id="43" value="app.mirrormedia.mg" style="text;html=1;strokeColor=none;fillColor=none;align=center;verticalAlign=middle;whiteSpace=wrap;rounded=0;" parent="1" vertex="1">
                    <mxGeometry x="290" y="-30" width="40" height="20" as="geometry"/>
                </mxCell>
                <mxCell id="68" value="" style="strokeColor=#dddddd;shadow=1;strokeWidth=1;rounded=1;absoluteArcSize=1;arcSize=2;" parent="1" vertex="1">
                    <mxGeometry x="830" y="404" width="100" height="60" as="geometry"/>
                </mxCell>
                <mxCell id="69" value="Firebase" style="dashed=0;connectable=0;html=1;fillColor=#5184F3;strokeColor=none;shape=mxgraph.gcp2.firebase;part=1;labelPosition=right;verticalLabelPosition=middle;align=left;verticalAlign=middle;spacingLeft=5;fontColor=#999999;fontSize=12;" parent="68" vertex="1">
                    <mxGeometry width="32.4" height="45" relative="1" as="geometry">
                        <mxPoint x="5" y="7" as="offset"/>
                    </mxGeometry>
                </mxCell>
                <mxCell id="71" value="User is authenticated by Firebase" style="text;html=1;align=center;verticalAlign=middle;resizable=0;points=[];autosize=1;" parent="1" vertex="1">
                    <mxGeometry x="690" y="-70" width="190" height="20" as="geometry"/>
                </mxCell>
                <mxCell id="74" value="{  &quot;rules&quot;: {    &quot;users&quot;: {      &quot;$user_id&quot;: {        &quot;.read&quot;: &quot;$user_id === auth.uid &amp;&amp; auth.token.auth_time &gt; (root.child('metadata').child(auth.uid).exists() &amp;&amp; root.child('metadata').child(auth.uid).child('revokeTime').exists() ? root.child('metadata').child(auth.uid).child('revokeTime').val() : 0)&quot;,        &quot;.write&quot;: &quot;$user_id === auth.uid &amp;&amp; auth.token.auth_time &gt; (root.child('metadata').child(auth.uid).exists() &amp;&amp; root.child('metadata').child(auth.uid).child('revokeTime').exists() ? root.child('metadata').child(auth.uid).child('revokeTime').val() : 0)&quot;      }    }  }}" style="text;whiteSpace=wrap;html=1;shadow=1;strokeColor=#F2C355;fillColor=#FFDD99;" parent="1" vertex="1">
                    <mxGeometry x="920" y="480" width="470" height="110" as="geometry"/>
                </mxCell>
                <mxCell id="75" value="" style="shape=link;html=1;entryX=0.25;entryY=0;entryDx=0;entryDy=0;exitX=1;exitY=0.5;exitDx=0;exitDy=0;" parent="1" source="68" target="74" edge="1">
                    <mxGeometry width="100" relative="1" as="geometry">
                        <mxPoint x="960" y="340" as="sourcePoint"/>
                        <mxPoint x="1060" y="340" as="targetPoint"/>
                    </mxGeometry>
                </mxCell>
                <mxCell id="76" value="FirebaseDB Rule for token verification" style="text;html=1;align=center;verticalAlign=middle;resizable=0;points=[];autosize=1;" parent="1" vertex="1">
                    <mxGeometry x="1060" y="460" width="220" height="20" as="geometry"/>
                </mxCell>
                <mxCell id="77" value="" style="endArrow=none;html=1;" parent="1" source="27" edge="1">
                    <mxGeometry width="50" height="50" relative="1" as="geometry">
                        <mxPoint x="250" y="-140" as="sourcePoint"/>
                        <mxPoint x="890" y="-13" as="targetPoint"/>
                        <Array as="points">
                            <mxPoint x="207" y="-120"/>
                            <mxPoint x="890" y="-120"/>
                        </Array>
                    </mxGeometry>
                </mxCell>
                <mxCell id="79" value="" style="shape=link;html=1;entryX=0;entryY=0.5;entryDx=0;entryDy=0;" parent="1" edge="1" target="74">
                    <mxGeometry width="100" relative="1" as="geometry">
                        <mxPoint x="610" y="460" as="sourcePoint"/>
                        <mxPoint x="897.5" y="550" as="targetPoint"/>
                    </mxGeometry>
                </mxCell>
                <mxCell id="40" value="(api with Firebase Token)" style="text;html=1;strokeColor=none;fillColor=none;align=center;verticalAlign=middle;whiteSpace=wrap;rounded=0;" parent="1" vertex="1">
                    <mxGeometry x="450" y="340" width="140" height="20" as="geometry"/>
                </mxCell>
                <mxCell id="94" value="" style="endArrow=classic;html=1;exitX=0.5;exitY=1;exitDx=0;exitDy=0;exitPerimeter=0;entryX=0.5;entryY=0;entryDx=0;entryDy=0;" edge="1" parent="1" source="90" target="91">
                    <mxGeometry width="50" height="50" relative="1" as="geometry">
                        <mxPoint x="480" y="540" as="sourcePoint"/>
                        <mxPoint x="530" y="490" as="targetPoint"/>
                    </mxGeometry>
                </mxCell>
                <mxCell id="103" value="" style="endArrow=classic;html=1;exitX=0;exitY=0.5;exitDx=0;exitDy=0;entryX=0.34;entryY=0.17;entryDx=0;entryDy=0;entryPerimeter=0;" edge="1" parent="1" source="91" target="113">
                    <mxGeometry relative="1" as="geometry">
                        <mxPoint x="520" y="570" as="sourcePoint"/>
                        <mxPoint x="125" y="720" as="targetPoint"/>
                        <Array as="points">
                            <mxPoint x="52" y="505"/>
                        </Array>
                    </mxGeometry>
                </mxCell>
                <mxCell id="104" value="&lt;span style=&quot;font-size: 12px ; background-color: rgb(248 , 249 , 250)&quot;&gt;Query&lt;/span&gt;" style="edgeLabel;resizable=0;html=1;align=center;verticalAlign=middle;" connectable="0" vertex="1" parent="103">
                    <mxGeometry relative="1" as="geometry"/>
                </mxCell>
                <mxCell id="108" value="" style="endArrow=classic;html=1;exitX=0.5;exitY=1;exitDx=0;exitDy=0;entryX=0.5;entryY=0;entryDx=0;entryDy=0;" edge="1" parent="1" source="91" target="93">
                    <mxGeometry relative="1" as="geometry">
                        <mxPoint x="490" y="430" as="sourcePoint"/>
                        <mxPoint x="426" y="600" as="targetPoint"/>
                    </mxGeometry>
                </mxCell>
                <mxCell id="109" value="mutations with firebase token" style="edgeLabel;resizable=0;html=1;align=center;verticalAlign=middle;" connectable="0" vertex="1" parent="108">
                    <mxGeometry relative="1" as="geometry"/>
                </mxCell>
                <mxCell id="111" value="" style="endArrow=classic;html=1;exitX=0;exitY=0.5;exitDx=0;exitDy=0;entryX=0.66;entryY=0.17;entryDx=0;entryDy=0;entryPerimeter=0;" edge="1" parent="1" source="93" target="113">
                    <mxGeometry relative="1" as="geometry">
                        <mxPoint x="531.5" y="550" as="sourcePoint"/>
                        <mxPoint x="631.5" y="550" as="targetPoint"/>
                        <Array as="points">
                            <mxPoint x="74" y="585"/>
                        </Array>
                    </mxGeometry>
                </mxCell>
                <mxCell id="112" value="&lt;span style=&quot;font-size: 12px ; background-color: rgb(248 , 249 , 250)&quot;&gt;Mutation&lt;/span&gt;" style="edgeLabel;resizable=0;html=1;align=center;verticalAlign=middle;" connectable="0" vertex="1" parent="111">
                    <mxGeometry relative="1" as="geometry"/>
                </mxCell>
                <mxCell id="113" value="Israfel" style="html=1;fillColor=#5184F3;strokeColor=none;verticalAlign=top;labelPosition=center;verticalLabelPosition=bottom;align=center;spacingTop=-6;fontSize=11;fontStyle=1;fontColor=#999999;shape=mxgraph.gcp2.hexIcon;prIcon=cloud_run" vertex="1" parent="1">
                    <mxGeometry x="30" y="750" width="66" height="58.5" as="geometry"/>
                </mxCell>
                <mxCell id="114" style="edgeStyle=none;html=1;exitX=0.5;exitY=1;exitDx=0;exitDy=0;exitPerimeter=0;entryX=0.5;entryY=0;entryDx=0;entryDy=0;entryPerimeter=0;" edge="1" parent="1" source="2" target="90">
                    <mxGeometry relative="1" as="geometry"/>
                </mxCell>
                <mxCell id="115" value="apigateway pod" style="shape=umlFrame;whiteSpace=wrap;html=1;width=120;height=30;boundedLbl=1;verticalAlign=middle;align=left;spacingLeft=5;shadow=0;fillColor=#C9C9C9;strokeColor=#4D5EFF;" vertex="1" parent="1">
                    <mxGeometry x="80" y="400" width="260" height="210" as="geometry"/>
                </mxCell>
                <mxCell id="6" value="" style="group" parent="1" vertex="1" connectable="0">
                    <mxGeometry x="197" y="330" width="90" height="70" as="geometry"/>
                </mxCell>
                <mxCell id="2" value="" style="html=1;dashed=0;whitespace=wrap;fillColor=#2875E2;strokeColor=#ffffff;points=[[0.005,0.63,0],[0.1,0.2,0],[0.9,0.2,0],[0.5,0,0],[0.995,0.63,0],[0.72,0.99,0],[0.5,1,0],[0.28,0.99,0]];shape=mxgraph.kubernetes.icon;prIcon=svc" parent="6" vertex="1">
                    <mxGeometry x="20" width="50" height="49.41176470588235" as="geometry"/>
                </mxCell>
                <mxCell id="5" value="APIGATEWAY" style="text;html=1;align=center;verticalAlign=middle;resizable=0;points=[];autosize=1;" parent="6" vertex="1">
                    <mxGeometry y="49.41176470588235" width="90" height="20" as="geometry"/>
                </mxCell>
                <mxCell id="90" value="" style="html=1;dashed=0;whitespace=wrap;fillColor=#2875E2;strokeColor=#ffffff;points=[[0.005,0.63,0],[0.1,0.2,0],[0.9,0.2,0],[0.5,0,0],[0.995,0.63,0],[0.72,0.99,0],[0.5,1,0],[0.28,0.99,0]];shape=mxgraph.kubernetes.icon;prIcon=pod" vertex="1" parent="1">
                    <mxGeometry x="217" y="420" width="50" height="48" as="geometry"/>
                </mxCell>
                <mxCell id="91" value="apigateway" style="shape=process;whiteSpace=wrap;html=1;backgroundOutline=1;" vertex="1" parent="1">
                    <mxGeometry x="177.5" y="490" width="130" height="30" as="geometry"/>
                </mxCell>
                <mxCell id="93" value="membermutation" style="shape=process;whiteSpace=wrap;html=1;backgroundOutline=1;" vertex="1" parent="1">
                    <mxGeometry x="180" y="570" width="125" height="30" as="geometry"/>
                </mxCell>
                <mxCell id="117" value="&lt;meta charset=&quot;utf-8&quot;&gt;&lt;h1 style=&quot;color: rgb(0, 0, 0); font-family: helvetica; font-style: normal; letter-spacing: normal; text-align: left; text-indent: 0px; text-transform: none; word-spacing: 0px; background-color: rgb(248, 249, 250); margin: 0px 0px 0px 40px; border: none; padding: 0px;&quot;&gt;&lt;font color=&quot;#0066cc&quot;&gt;GKE Cluster&lt;/font&gt;&lt;/h1&gt;&lt;blockquote style=&quot;border: none; color: rgb(0, 0, 0); font-family: helvetica; font-size: 12px; font-style: normal; font-weight: 400; letter-spacing: normal; text-align: left; text-indent: 0px; text-transform: none; word-spacing: 0px; margin: 0px 0px 0px 40px; padding: 0px;&quot;&gt;&lt;div&gt;&lt;font color=&quot;#0066cc&quot;&gt;Workload Identity Enabled&lt;/font&gt;&lt;/div&gt;&lt;/blockquote&gt;" style="text;whiteSpace=wrap;html=1;" vertex="1" parent="1">
                    <mxGeometry x="57" y="140" width="210" height="40" as="geometry"/>
                </mxCell>
                <mxCell id="119" value="" style="endArrow=classic;html=1;exitX=0.005;exitY=0.63;exitDx=0;exitDy=0;exitPerimeter=0;entryX=0.5;entryY=0;entryDx=0;entryDy=0;entryPerimeter=0;" edge="1" parent="1" source="17" target="2">
                    <mxGeometry relative="1" as="geometry">
                        <mxPoint x="580" y="350" as="sourcePoint"/>
                        <mxPoint x="680" y="350" as="targetPoint"/>
                    </mxGeometry>
                </mxCell>
                <mxCell id="120" value="&lt;span style=&quot;font-size: 12px ; background-color: rgb(248 , 249 , 250)&quot;&gt;app.mirrormedia.mg&lt;/span&gt;" style="edgeLabel;resizable=0;html=1;align=center;verticalAlign=middle;" connectable="0" vertex="1" parent="119">
                    <mxGeometry relative="1" as="geometry"/>
                </mxCell>
                <mxCell id="121" value="" style="endArrow=classic;html=1;entryX=0.5;entryY=0;entryDx=0;entryDy=0;entryPerimeter=0;exitX=0.995;exitY=0.63;exitDx=0;exitDy=0;exitPerimeter=0;" edge="1" parent="1" source="17" target="14">
                    <mxGeometry relative="1" as="geometry">
                        <mxPoint x="580" y="190" as="sourcePoint"/>
                        <mxPoint x="760" y="190" as="targetPoint"/>
                    </mxGeometry>
                </mxCell>
                <mxCell id="122" value="&lt;span style=&quot;font-size: 12px ; background-color: rgb(248 , 249 , 250)&quot;&gt;www.mirrormedia.mg&lt;/span&gt;" style="edgeLabel;resizable=0;html=1;align=center;verticalAlign=middle;" connectable="0" vertex="1" parent="121">
                    <mxGeometry relative="1" as="geometry"/>
                </mxCell>
                <mxCell id="124" value="Subscription Webhook Subscribers" style="html=1;fillColor=#5184F3;strokeColor=none;verticalAlign=top;labelPosition=center;verticalLabelPosition=bottom;align=center;spacingTop=-6;fontSize=11;fontStyle=1;fontColor=#999999;shape=mxgraph.gcp2.hexIcon;prIcon=cloud_run" vertex="1" parent="1">
                    <mxGeometry x="209" y="870" width="66" height="58.5" as="geometry"/>
                </mxCell>
                <mxCell id="125" value="" style="endArrow=classic;html=1;exitX=0.5;exitY=1;exitDx=0;exitDy=0;" edge="1" parent="1" source="93">
                    <mxGeometry relative="1" as="geometry">
                        <mxPoint x="580" y="730" as="sourcePoint"/>
                        <mxPoint x="243" y="880" as="targetPoint"/>
                    </mxGeometry>
                </mxCell>
                <mxCell id="126" value="Transform &lt;b&gt;upsertAppSubscription&lt;/b&gt;&amp;nbsp;mutation&lt;br&gt;into a JSON POST http reuqest and relay it&lt;br&gt;to the designated handler&amp;nbsp;" style="edgeLabel;resizable=0;html=1;align=center;verticalAlign=middle;" connectable="0" vertex="1" parent="125">
                    <mxGeometry relative="1" as="geometry"/>
                </mxCell>
                <mxCell id="127" value="" style="group" vertex="1" connectable="0" parent="1">
                    <mxGeometry x="540" y="530" width="120" height="70" as="geometry"/>
                </mxCell>
                <mxCell id="128" value="" style="html=1;dashed=0;whitespace=wrap;fillColor=#2875E2;strokeColor=#ffffff;points=[[0.005,0.63,0],[0.1,0.2,0],[0.9,0.2,0],[0.5,0,0],[0.995,0.63,0],[0.72,0.99,0],[0.5,1,0],[0.28,0.99,0]];shape=mxgraph.kubernetes.icon;prIcon=svc" vertex="1" parent="127">
                    <mxGeometry x="20" width="50" height="49.41176470588235" as="geometry"/>
                </mxCell>
                <mxCell id="129" value="Content RESTful Service" style="text;html=1;align=center;verticalAlign=middle;resizable=0;points=[];autosize=1;" vertex="1" parent="127">
                    <mxGeometry x="-30" y="49.41176470588235" width="150" height="20" as="geometry"/>
                </mxCell>
                <mxCell id="130" value="" style="endArrow=classic;html=1;exitX=1;exitY=0.5;exitDx=0;exitDy=0;entryX=0.5;entryY=0;entryDx=0;entryDy=0;entryPerimeter=0;" edge="1" parent="1" source="91" target="128">
                    <mxGeometry relative="1" as="geometry">
                        <mxPoint x="335" y="510" as="sourcePoint"/>
                        <mxPoint x="435" y="510" as="targetPoint"/>
                        <Array as="points">
                            <mxPoint x="585" y="505"/>
                        </Array>
                    </mxGeometry>
                </mxCell>
                <mxCell id="131" value="V0 api mainly acts as the Reverse Proxy&amp;nbsp;" style="edgeLabel;resizable=0;html=1;align=center;verticalAlign=middle;" connectable="0" vertex="1" parent="130">
                    <mxGeometry relative="1" as="geometry"/>
                </mxCell>
                <mxCell id="132" value="" style="endArrow=classic;html=1;entryX=0;entryY=0.75;entryDx=0;entryDy=0;exitX=0.995;exitY=0.63;exitDx=0;exitDy=0;exitPerimeter=0;" edge="1" parent="1" source="90" target="68">
                    <mxGeometry relative="1" as="geometry">
                        <mxPoint x="350" y="440" as="sourcePoint"/>
                        <mxPoint x="831.3888549804688" y="350" as="targetPoint"/>
                        <Array as="points"/>
                    </mxGeometry>
                </mxCell>
                <mxCell id="133" value="&lt;div&gt;&lt;ol&gt;&lt;li&gt;Gateway verifies and revoke user token with Firebase and FirebaseDB&lt;/li&gt;&lt;li&gt;Gateway writes revoked token as metadata in FirebaseDB&lt;/li&gt;&lt;/ol&gt;&lt;/div&gt;" style="edgeLabel;resizable=0;html=1;align=left;verticalAlign=middle;" connectable="0" vertex="1" parent="132">
                    <mxGeometry relative="1" as="geometry">
                        <mxPoint x="-198" y="-6" as="offset"/>
                    </mxGeometry>
                </mxCell>
            </root>
        </mxGraphModel>
    </diagram>
</mxfile>